<?xml version="1.0" encoding="UTF-8" standalone="no" ?>
<!DOCTYPE svg PUBLIC "-//W3C//DTD SVG 1.1//EN" "http://www.w3.org/Graphics/SVG/1.1/DTD/svg11.dtd">
<svg xmlns="http://www.w3.org/2000/svg" xmlns:xlink="http://www.w3.org/1999/xlink" version="1.1" width="1280" height="1024" viewBox="0 0 1280 1024" xml:space="preserve">
<desc>Created with Fabric.js 5.3.0</desc>
<defs>
</defs>
<g transform="matrix(1 0 0 1 640 512)" id="background-logo"  >
<rect style="stroke: none; stroke-width: 0; stroke-dasharray: none; stroke-linecap: butt; stroke-dashoffset: 0; stroke-linejoin: miter; stroke-miterlimit: 4; fill: rgb(0,7,46); fill-rule: nonzero; opacity: 1;"  paint-order="stroke"  x="-640" y="-512" rx="0" ry="0" width="1280" height="1024" />
</g>
<g transform="matrix(4.444789291843674 0 0 4.444789291843674 615.6210722870878 526.5849608715623)" id="logo-logo"  >
<g style=""  paint-order="stroke"   >
		<g transform="matrix(1.7333333333333334 0 0 1.7333333333333334 0.0003573266667444841 -0.00000667333338810749)"  >
<radialGradient id="SVGID_7_4_4_456038" gradientUnits="userSpaceOnUse" gradientTransform="matrix(1 0 0 1 -187.5002136 -150)"  cx="187.5002136" cy="150" r="43.7770844" fx="187.5002136" fy="150">
<stop offset="40.92225%" style="stop-color:rgb(43,58,255);stop-opacity: 1"/>
<stop offset="52.55934%" style="stop-color:rgb(32,49,206);stop-opacity: 0.8030207"/>
<stop offset="69.07571999999999%" style="stop-color:rgb(19,37,144);stop-opacity: 0.5234506"/>
<stop offset="83.06685999999999%" style="stop-color:rgb(9,28,98);stop-opacity: 0.2866246"/>
<stop offset="93.80401%" style="stop-color:rgb(2,23,70);stop-opacity: 0.1048784"/>
<stop offset="100%" style="stop-color:rgb(0,21,59);stop-opacity: 0"/>
</radialGradient>
<circle style="stroke: none; stroke-width: 1; stroke-dasharray: none; stroke-linecap: butt; stroke-dashoffset: 0; stroke-linejoin: miter; stroke-miterlimit: 4; fill: url(#SVGID_7_4_4_456038); fill-rule: nonzero; opacity: 1;"  paint-order="stroke"  cx="0" cy="0" r="43.7770844" />
</g>
		<g transform="matrix(1.7333333333333334 0 0 1.7333333333333334 8.666671647006e-8 -0.0000132599999744798)"  >
<radialGradient id="SVGID_8_5_5_456039" gradientUnits="userSpaceOnUse" gradientTransform="matrix(1 0 0 1 0 0)"  cx="187.5" cy="150" r="53.8600044" fx="187.5" fy="150">
<stop offset="0%" style="stop-color:rgb(255,255,255);stop-opacity: 1"/>
<stop offset="14.10515%" style="stop-color:rgb(232,232,232);stop-opacity: 1"/>
<stop offset="28.26653%" style="stop-color:rgb(248,248,248);stop-opacity: 1"/>
<stop offset="39.9037%" style="stop-color:rgb(255,255,255);stop-opacity: 1"/>
<stop offset="43.25715%" style="stop-color:rgb(247,247,247);stop-opacity: 1"/>
<stop offset="48.428490000000004%" style="stop-color:rgb(225,225,225);stop-opacity: 1"/>
<stop offset="52.78592%" style="stop-color:rgb(202,202,202);stop-opacity: 1"/>
<stop offset="57.77574%" style="stop-color:rgb(215,215,215);stop-opacity: 1"/>
<stop offset="67.08095%" style="stop-color:rgb(251,251,251);stop-opacity: 1"/>
<stop offset="68.05284%" style="stop-color:rgb(255,255,255);stop-opacity: 1"/>
<stop offset="85.77203%" style="stop-color:rgb(195,195,195);stop-opacity: 1"/>
</radialGradient>
<path style="stroke: none; stroke-width: 1; stroke-dasharray: none; stroke-linecap: butt; stroke-dashoffset: 0; stroke-linejoin: miter; stroke-miterlimit: 4; fill: url(#SVGID_8_5_5_456039); fill-rule: nonzero; opacity: 1;"  paint-order="stroke"  transform=" translate(-187.50000749999998, -149.99999620000003)" d="M 234.8586884 124.3257751 L 231.11114510000002 126.3605575 C 235.02664190000002 133.5676574 237.09613050000002 141.7415008 237.09613050000002 149.9999999 C 237.09613050000002 151.16590870000002 237.05587780000002 152.3380584 236.97537240000003 153.498413 L 233.26286320000003 153.498413 C 233.35047920000002 152.342224 233.40963750000003 151.1782226 233.40963750000003 149.9999999 C 233.40963750000003 127.3321456 216.89134220000003 108.4609527 195.26229860000004 104.7605819 L 195.26229860000004 96.6570205 L 193.00405890000005 96.4182815 C 191.19134530000005 96.23368070000001 189.33978280000005 96.13999170000001 187.50070200000005 96.13999170000001 C 178.53433240000004 96.13999170000001 169.65678420000006 98.38852690000002 161.82577520000004 102.64200590000002 L 163.86056520000002 106.38816830000002 C 172.0857544 101.92094420000002 181.63230900000002 99.87644190000002 190.99841310000002 100.52532960000002 L 190.99841310000002 104.23774720000002 C 189.84248350000001 104.15013120000002 188.6786652 104.09105680000002 187.50070190000002 104.09105680000002 C 164.83311460000002 104.09105680000002 145.96208190000002 120.60910030000002 142.2614593 142.23770140000002 L 134.14801020000002 142.23770140000002 L 133.918991 144.49456790000002 C 133.7343902 146.30587770000002 133.6399993 148.15884400000002 133.6399993 150.00000000000003 C 133.6399993 158.96429440000003 135.8885345 167.84252930000002 140.1413116 175.6742249 L 143.88887019999999 173.63943490000003 C 139.97337339999999 166.4302522 137.9038848 158.2557221 137.9038848 150.00000010000002 C 137.9038848 148.83340460000002 137.94413749999998 147.66194160000003 138.0260314 146.50158700000003 L 141.7385406 146.50158700000003 C 141.6509246 147.65777600000004 141.5917663 148.82177740000003 141.5917663 150.00000010000002 C 141.5917663 172.66732800000003 158.1094512 191.53817760000004 179.7377014 195.23915110000002 L 179.7377014 203.3429719 L 181.99595639999998 203.58171090000002 C 183.80866999999998 203.76631170000002 185.6616211 203.86000070000003 187.5007019 203.86000070000003 C 196.46568299999998 203.86000070000003 205.3432312 201.61146550000004 213.1742248 197.35798650000004 L 211.13944999999998 193.61183170000004 C 202.91287219999998 198.08044440000003 193.35937489999998 200.12355050000005 184.00158679999998 199.47467040000004 L 184.00158679999998 195.76216120000004 C 185.15795889999998 195.84986870000003 186.32221969999998 195.90893550000004 187.50070179999997 195.90893550000004 C 210.16828909999998 195.90893550000004 229.03930649999998 179.39089960000004 232.73994439999996 157.76229850000004 L 240.84367359999996 157.76229850000004 L 241.08241259999997 155.50404350000005 C 241.26701339999997 153.68786610000006 241.36001569999996 151.83630360000006 241.36001569999996 149.99999990000006 C 241.3600159 141.0329285 239.1114807 132.1546936 234.8586884 124.3257751 z M 228.9878693 153.4984131 L 216.2744599 153.4984131 L 217.6407624 152.1319428 L 229.0916291 152.1319428 C 229.0684662 152.5904999 229.0258636 153.0438385 228.9878693 153.4984131 z M 189.6326447 108.4090729 C 190.0909424 108.43223569999999 190.54402169999997 108.4748307 190.9984131 108.51282499999999 L 190.9984131 121.22502139999999 L 189.6326447 119.85924529999998 L 189.6326447 108.4090729 z M 146.0135345 146.5015869 L 158.7255401 146.5015869 L 157.3592529 147.8680572 L 145.9097748 147.8680572 C 145.9329376 147.4095001 145.9755249 146.9561462 146.0135345 146.5015869 z M 185.3687592 191.5909271 C 184.9099427 191.56767269999997 184.4564209 191.52516169999998 184.001587 191.48707579999999 L 184.001587 178.77359009999998 L 185.3687592 180.14074709999997 L 185.3687592 191.5909271 z M 189.6326447 191.5909271 L 189.6326447 178.37524409999997 L 184.00158699999997 172.74418639999996 L 184.00158699999997 166.76683039999995 L 193.20669559999996 166.76683039999995 L 193.20669559999996 162.50294489999996 L 179.73770149999996 162.50294489999996 L 179.73770149999996 168.48030089999997 L 165.22911079999994 153.97171019999996 L 152.94685369999993 166.34350589999997 L 153.67276009999995 167.72732549999998 C 158.29753119999995 176.53616339999996 166.02998359999995 183.1110383 175.44328319999994 186.2409363 L 178.24839789999993 187.1736603 L 178.24839789999993 173.020401 L 179.73770149999993 174.5097046 L 179.73770149999993 190.9083862 C 161.15156559999994 187.3883667 146.89047249999993 171.4874572 145.90977489999995 152.1319427 L 159.12477119999994 152.1319427 L 164.75512699999993 146.5015869 L 170.73385619999993 146.5015869 L 170.73385619999993 155.7066955 L 174.99774169999992 155.7066955 L 174.99774169999992 142.2377014 L 169.01901249999992 142.2377014 L 183.52828979999992 127.72841639999999 L 171.1571959999999 115.44545739999998 L 169.7733763999999 116.17206569999998 C 160.9638365999999 120.79751579999997 154.3889616999999 128.52996819999998 151.2590636999999 137.94396969999997 L 150.3277282999999 140.74839779999996 L 164.4782256999999 140.74839779999996 L 162.98908999999992 142.23770139999996 L 146.59222419999992 142.23770139999996 C 150.11207589999992 123.65077969999996 166.01341259999992 109.38977049999997 185.36875919999991 108.40907289999996 L 185.36875919999991 121.62475589999995 L 190.9984130999999 127.25441749999996 L 190.9984130999999 133.23315439999996 L 181.79330449999992 133.23315439999996 L 181.79330449999992 137.49703989999995 L 195.26229859999992 137.49703989999995 L 195.26229859999992 131.51831069999994 L 209.77227779999993 146.02828989999995 L 222.05593869999993 133.65649419999994 L 221.32862849999992 132.27267459999993 C 216.70248409999994 123.46383669999993 208.97003169999994 116.88896179999993 199.5567168999999 113.75905609999992 L 196.75160219999992 112.82633209999993 L 196.75160219999992 126.97821049999993 L 195.26229859999992 125.48890689999993 L 195.26229859999992 109.09135439999993 C 213.84913639999994 112.61093139999993 228.1109313999999 128.51202399999994 229.09162899999993 147.86805729999992 L 215.87524409999992 147.86805729999992 L 210.24488829999993 153.4984130999999 L 204.2675322999999 153.4984130999999 L 204.2675322999999 144.29330449999992 L 200.00364679999993 144.29330449999992 L 200.00364679999993 157.76229859999992 L 205.98100279999994 157.76229859999992 L 191.47172549999993 172.27157589999993 L 203.84420779999994 184.55453489999994 L 205.22802739999995 183.82792659999993 C 214.03616339999994 179.20178219999994 220.61103829999993 171.47001639999993 223.74234009999995 162.05601499999992 L 224.67506409999996 159.25160219999992 L 210.52178959999995 159.25160219999992 L 212.01092529999994 157.76229859999992 L 228.40916439999995 157.76229859999992 C 224.889328 176.3492126 208.9879913 190.6102295 189.6326447 191.5909271 z M 173.9845123 168.7565155 L 173.9845123 181.1178894 C 167.4318542 178.25378419999998 161.8327179 173.2938232 158.20175170000002 167.1020355 L 165.24021910000002 160.0122223 L 173.9845123 168.7565155 z M 168.7420959 136.4845123 L 156.3821105 136.4845123 C 159.2469024 129.931839 164.20617670000001 124.33201600000001 170.3979644 120.70105740000001 L 177.48779290000002 127.73951720000001 L 168.7420959 136.4845123 z M 201.0154877 131.2420959 L 201.0154877 118.87585440000001 C 207.6361695 121.7420424 213.1367493 126.61872090000001 216.8010254 132.8965758 L 209.76118469999997 139.9877776 L 201.0154877 131.2420959 z M 206.2579041 163.5154877 L 218.6179047 163.5154877 C 215.7530976 170.068161 210.7938385 175.66796879999998 204.6020508 179.298935 L 197.5122223 172.2604829 L 206.2579041 163.5154877 z" stroke-linecap="round" />
</g>
		<g transform="matrix(1.7333333333333334 0 0 1.7333333333333334 -8.666665962664e-8 8.666668804835e-8)"  >
<radialGradient id="SVGID_9_6_6_456040" gradientUnits="userSpaceOnUse" gradientTransform="matrix(1 0 0 1 0 0)"  cx="187.5" cy="150" r="78.7519302" fx="187.5" fy="150">
<stop offset="14.227970000000001%" style="stop-color:rgb(195,195,195);stop-opacity: 1"/>
<stop offset="31.947160000000004%" style="stop-color:rgb(255,255,255);stop-opacity: 1"/>
<stop offset="32.91905%" style="stop-color:rgb(251,251,251);stop-opacity: 1"/>
<stop offset="42.22426%" style="stop-color:rgb(215,215,215);stop-opacity: 1"/>
<stop offset="47.21408%" style="stop-color:rgb(202,202,202);stop-opacity: 1"/>
<stop offset="51.571509999999996%" style="stop-color:rgb(225,225,225);stop-opacity: 1"/>
<stop offset="56.74285%" style="stop-color:rgb(247,247,247);stop-opacity: 1"/>
<stop offset="60.0963%" style="stop-color:rgb(255,255,255);stop-opacity: 1"/>
<stop offset="71.73347%" style="stop-color:rgb(248,248,248);stop-opacity: 1"/>
<stop offset="85.89485%" style="stop-color:rgb(232,232,232);stop-opacity: 1"/>
<stop offset="100%" style="stop-color:rgb(255,255,255);stop-opacity: 1"/>
</radialGradient>
<path style="stroke: none; stroke-width: 1; stroke-dasharray: none; stroke-linecap: butt; stroke-dashoffset: 0; stroke-linejoin: miter; stroke-miterlimit: 4; fill: url(#SVGID_9_6_6_456040); fill-rule: nonzero; opacity: 1;"  paint-order="stroke"  transform=" translate(-187.50000739999996, -150.00000390000002)" d="M 187.5007019 97.5612869 C 189.2912903 97.5612869 191.0944519 97.6524505 192.8545837 97.8316955 L 193.8410034 97.9359817 L 193.8410034 104.7605743 L 193.8410034 105.9593658 L 195.0226135 106.1615219 C 216.4420624 109.8260193 231.9883423 128.2627563 231.9883423 150 C 231.9883423 151.0286865 231.9429779 152.1062012 231.8456421 153.3910065 L 231.7297516 154.919693 L 233.2628632 154.919693 L 236.9753724 154.919693 L 238.3014985 154.919693 L 238.3932801 153.596756 C 238.4756928 152.40908819999999 238.5174256 151.19897459999999 238.5174256 150 C 238.5174256 141.98262019999999 236.6209107 134.0418396 233.0209199 126.9409103 L 234.2707978 126.26226799999999 C 237.9827882 133.5708618 239.9387208 141.7466125 239.9387208 149.99999989999998 C 239.9387208 151.79214469999997 239.8477937 153.5956115 239.6690064 155.3546142 L 239.5647431 156.34098809999998 L 232.73994449999998 156.34098809999998 L 231.54115299999998 156.34098809999998 L 231.3390351 157.52259819999998 C 227.67422489999998 178.94160449999998 209.23756419999998 194.48762509999997 187.500702 194.48762509999997 C 186.4705506 194.48762509999997 185.3927918 194.44229119999997 184.10906989999998 194.34492489999997 L 182.58029179999997 194.22897339999997 L 182.58029179999997 195.76214599999997 L 182.58029179999997 199.47465519999997 L 182.58029179999997 200.80081179999996 L 183.90330509999998 200.89254759999997 C 185.06304939999998 200.97297669999998 186.2433625 201.01373289999998 187.41143799999998 201.01373289999998 C 195.48672489999998 201.01373289999998 203.45878599999998 199.11825559999997 210.55918889999998 195.52124019999997 L 211.2374726 196.77014159999996 C 203.92756659999998 200.48254389999997 195.75209049999998 202.43872069999995 187.500702 202.43872069999995 C 185.7092439 202.43872069999995 183.9055635 202.34754939999993 182.1454316 202.16830439999995 L 181.1589967 202.06401059999996 L 181.1589967 195.23915099999996 L 181.1589967 194.04040529999997 L 179.97747809999998 193.83821109999997 C 158.5588226 190.173111 143.0130615 171.7364807 143.0130615 150 C 143.0130615 148.9713135 143.0583801 147.8937836 143.1557617 146.6089783 L 143.2716064 145.0802918 L 141.7385406 145.0802918 L 138.0260314 145.0802918 L 136.7015075 145.0802918 L 136.6082458 146.4015503 C 136.52488699999998 147.5832367 136.4825897 148.79393009999998 136.4825897 150 C 136.4825897 158.0153809 138.37927240000002 165.9563904 141.9792633 173.0590057 L 140.7293854 173.7376251 C 137.0173493 166.4266662 135.06129460000002 158.2508087 135.06129460000002 150 C 135.06129460000002 148.2112579 135.1526947 146.4074402 135.33303840000002 144.6380615 L 135.4323731 143.6589966 L 142.2614594 143.6589966 L 143.4602509 143.6589966 L 143.6623688 142.4774018 C 147.3271637 121.05840309999999 165.7638397 105.51235969999999 187.5007019 105.51235969999999 C 188.529892 105.51235969999999 189.607132 105.55767069999999 190.89102169999998 105.65497599999999 L 192.41970819999997 105.77082069999999 L 192.41970819999997 104.23773959999998 L 192.41970819999997 100.52533729999999 L 192.41970819999997 99.19909679999999 L 191.09661859999997 99.10743729999999 C 189.93652339999997 99.02705399999999 188.75587459999997 98.98630539999999 187.58761589999997 98.98630539999999 C 179.51329029999997 98.98630539999999 171.5423583 100.88141649999999 164.4409179 104.47881329999998 L 163.76254269999998 103.22985849999998 C 171.072525 99.5174561 179.2484436 97.5612869 187.5007019 97.5612869 M 144.8765106 143.6589966 L 146.59222409999998 143.6589966 L 162.98909 143.6589966 L 163.57785040000002 143.6589966 L 163.9941559 143.2426453 L 165.4832916 141.7533265 L 167.9092254 139.32708749999998 L 164.4782256 139.32708749999998 L 152.2973632 139.32708749999998 L 152.607788 138.39237989999998 C 155.6213225 129.32830819999998 161.9521789 121.88388839999998 170.434143 117.43043529999998 L 170.8952941 117.18829359999998 L 181.5146789 127.73202529999998 L 168.01402280000002 141.23269669999996 L 165.58773800000003 143.65899669999996 L 169.01901240000004 143.65899669999996 L 173.57644650000003 143.65899669999996 L 173.57644650000003 154.28540049999995 L 172.15515130000003 154.28540049999995 L 172.15515130000003 146.50158699999994 L 172.15515130000003 145.08029179999994 L 170.73385610000003 145.08029179999994 L 164.75512690000002 145.08029179999994 L 164.16644280000003 145.08029179999994 L 163.75013730000003 145.49658209999996 L 158.53604120000003 150.71064769999995 L 145.9097747 150.71064769999995 L 144.41461170000002 150.71064769999995 L 144.4902953 152.20385749999994 C 145.49862660000002 172.10476689999993 159.8841246 188.59489449999995 179.4732055 192.30484019999994 L 181.1589965 192.62411509999995 L 181.1589965 190.90838629999996 L 181.1589965 174.50968939999996 L 181.1589965 173.92097479999995 L 180.742691 173.50469979999994 L 179.2533874 172.01538099999993 L 176.82710260000002 169.58911149999994 L 176.82710260000002 173.02040119999995 L 176.82710260000002 185.20326249999997 L 175.89178460000002 184.89224259999997 C 166.82789610000003 181.87854019999997 159.38397210000002 175.54795849999996 154.9314117 167.06707779999996 L 154.689331 166.60565199999996 L 165.23275750000002 155.98538219999998 L 178.732727 169.4853212 L 181.1589965 171.91162119999998 L 181.1589965 168.480301 L 181.1589965 163.92424019999999 L 191.7854003 163.92424019999999 L 191.7854003 165.3455354 L 184.00158679999998 165.3455354 L 182.58029159999998 165.3455354 L 182.58029159999998 166.7668306 L 182.58029159999998 172.74420179999998 L 182.58029159999998 173.3329164 L 182.99661239999998 173.7492067 L 188.21134929999997 178.9639436 L 188.21134929999997 191.59092719999998 L 188.21134929999997 193.0860444 L 189.70455909999995 193.01039129999998 C 209.60580419999997 192.00204469999997 226.09591649999996 177.61624149999997 229.80564859999996 158.02674869999998 L 230.12489299999996 156.3409882 L 228.40916419999996 156.3409882 L 212.01092509999995 156.3409882 L 211.42216469999994 156.3409882 L 211.00585919999995 156.7573548 L 209.51672349999996 158.2466736 L 207.09078969999996 160.6728974 L 210.52178949999995 160.6728974 L 222.70446769999995 160.6728974 L 222.39364619999995 161.60743720000002 C 219.37902829999996 170.67080700000002 213.04809569999995 178.1153107 204.56726069999996 182.56956490000002 L 204.10601799999995 182.81173710000002 L 193.48542779999994 172.2679291 L 206.98599239999993 158.7673035 L 209.41227719999992 156.3409882 L 205.9810027999999 156.3409882 L 201.4249419999999 156.3409882 L 201.4249419999999 145.7145997 L 202.8462371999999 145.7145997 L 202.8462371999999 153.49839790000001 L 202.8462371999999 154.91969310000002 L 204.2675323999999 154.91969310000002 L 210.24488839999992 154.91969310000002 L 210.83357249999992 154.91969310000002 L 211.2498779999999 154.5034181 L 216.4639282999999 149.2893525 L 229.09162909999992 149.2893525 L 230.58674629999993 149.2893525 L 230.51109319999992 147.79614270000002 C 229.50273139999993 127.89463060000001 215.11662299999992 111.40439620000001 195.52671819999992 107.69487010000002 L 193.8410034999999 107.37566390000002 L 193.8410034999999 109.09134690000002 L 193.8410034999999 125.48890700000001 L 193.8410034999999 126.07762920000002 L 194.2573089999999 126.49391950000002 L 195.7466277999999 127.98321550000001 L 198.1728972999999 130.40950030000002 L 198.1728972999999 126.97821060000003 L 198.1728972999999 114.79673780000003 L 199.1082305999999 115.10775770000004 C 208.1715850999999 118.12126940000003 215.6160430999999 124.45190440000003 220.0705108999999 132.93389910000005 L 220.3128051999999 133.39488240000006 L 209.7686309999999 144.01466390000004 L 196.2672881999999 130.51329060000003 L 193.84100339999992 128.08699060000004 L 193.84100339999992 131.51829550000002 L 193.84100339999992 136.07576010000002 L 183.21459959999993 136.07576010000002 L 183.21459959999993 134.65446490000002 L 190.99841309999994 134.65446490000002 L 192.41970829999994 134.65446490000002 L 192.41970829999994 133.23316970000002 L 192.41970829999994 127.25440990000001 L 192.41970829999994 126.6656877 L 192.00340279999995 126.24940500000001 L 186.79005439999995 121.03604140000002 L 186.79005439999995 108.40907300000002 L 186.79005439999995 106.91394060000002 L 185.29684459999996 106.98960130000002 C 165.39558419999994 107.99795550000002 148.90547189999995 122.38375110000001 145.19573989999995 141.97323620000003 L 144.8765106 143.6589966 M 192.4197083 124.6563721 L 192.4197083 121.22502899999999 L 192.4197083 108.5128326 L 192.4197083 107.2054596 L 191.1169129 107.0964813 L 190.85945139999998 107.0746155 C 190.475586 107.0417404 190.0917207 107.00917059999999 189.70437629999998 106.9895859 L 188.21134959999998 106.91413879999999 L 188.21134959999998 108.40907289999998 L 188.21134959999998 119.85924529999998 L 188.21134959999998 120.44795989999999 L 188.62765509999997 120.86425019999999 L 189.99342349999998 122.23003389999998 L 192.4197083 124.6563721 M 209.7648163 142.0014496 L 210.7698059 140.9891205 L 217.80966189999998 133.8979035 L 218.578949 133.12307750000002 L 218.028534 132.18009960000003 C 214.2025452 125.62520610000003 208.51477060000002 120.57363900000003 201.58013920000002 117.57154860000003 L 199.59419250000002 116.71179210000003 L 199.59419250000002 118.87586220000003 L 199.59419250000002 131.24209600000003 L 199.59419250000002 131.83081060000004 L 200.0105133 132.24710090000002 L 208.7561951 140.99278270000002 L 209.7648163 142.0014496 M 154.2095337 137.9057922 L 156.3821106 137.9057922 L 168.742096 137.9057922 L 169.3307801 137.9057922 L 169.7470856 137.4895324 L 178.4927674 128.7445678 L 179.50149539999998 127.7359161 L 178.48913579999999 126.7308731 L 171.39930729999998 119.6924057 L 170.62281799999997 118.92153929999999 L 169.67898559999998 119.47501369999999 C 163.2517548 123.2440719 158.06698609999998 129.0826263 155.07983399999998 135.9151458 L 154.2095337 137.9057922 M 144.4148254 149.2893524 L 145.9097747 149.2893524 L 157.3592528 149.2893524 L 157.94801320000002 149.2893524 L 158.3643187 148.8729858 L 159.7306212 147.5065307 L 162.156555 145.0802917 L 158.72554 145.0802917 L 146.0135344 145.0802917 L 144.7060545 145.0802917 L 144.597183 146.38322440000002 L 144.5752256 146.64144890000003 C 144.5423887 147.02519220000002 144.50985690000002 147.40898120000003 144.4902647 147.79632560000002 L 144.4148254 149.2893524 M 212.8434601 154.919693 L 216.27445989999998 154.919693 L 228.98786929999997 154.919693 L 230.29534919999998 154.919693 L 230.40422069999997 153.6167755 L 230.42616279999996 153.35855099999998 C 230.45895389999995 152.97480769999999 230.49157719999997 152.59101869999998 230.51109319999995 152.2036743 L 230.58656319999994 150.7106476 L 229.09162909999995 150.7106476 L 217.64076239999994 150.7106476 L 217.05200199999993 150.7106476 L 216.63568119999994 151.1269989 L 215.26939399999995 152.4934692 L 212.8434601 154.919693 M 175.4058075 183.2902679 L 175.4058075 181.1179046 L 175.4058075 168.7565154 L 175.4058075 168.1678008 L 174.98950200000002 167.7515105 L 166.24520880000003 159.0072173 L 165.23657230000003 157.9985503 L 164.23159790000003 159.0108794 L 157.19313050000002 166.1006926 L 156.42222600000002 166.8771666 L 156.97573860000003 167.820999 C 160.74549870000004 174.2494811 166.58378610000003 179.4342497 173.41526800000003 182.4202269 L 175.4058075 183.2902679 M 204.3771973 181.0784607 L 205.3210144 180.5249786 C 211.74824519999999 176.7559204 216.9330597 170.9173584 219.9201813 164.0848541 L 220.79043579999998 162.0941925 L 218.6179047 162.0941925 L 206.2579041 162.0941925 L 205.6692353 162.0941925 L 205.2529145 162.5104523 L 196.5072327 171.2554322 L 195.4985199 172.2640839 L 196.5108795 173.2691193 L 203.6006927 180.3075867 L 204.3771973 181.0784607 M 186.7900543 193.0860443 L 186.7900543 191.5909271 L 186.7900543 180.14074699999998 L 186.7900543 179.55203239999997 L 186.37374880000002 179.13574209999996 L 185.00657660000002 177.76858509999997 L 182.58029180000003 175.34226979999997 L 182.58029180000003 178.77357469999995 L 182.58029180000003 191.48707569999996 L 182.58029180000003 192.79432669999997 L 183.88301090000002 192.90341179999996 L 184.13493350000002 192.92481989999996 C 184.52104190000003 192.95788569999996 184.9071656 192.99064629999995 185.29684450000002 193.01039119999996 L 186.7900543 193.0860443 M 187.5007019 96.1399918 C 178.5343323 96.1399918 169.65678409999998 98.38852700000001 161.8257751 102.64199070000001 L 163.86056509999997 106.388176 C 171.08874499999996 102.4624482 179.33779899999996 100.4076081 187.58761589999997 100.4076081 C 188.72560109999998 100.4076081 189.86312859999998 100.44667820000001 190.99841299999997 100.5253373 L 190.99841299999997 104.2377396 C 189.84248339999996 104.1501389 188.67866509999996 104.0910645 187.50070179999997 104.0910645 C 164.83311449999997 104.0910645 145.96208179999996 120.6091004 142.2614592 142.23770150000001 L 134.1480101 142.23770150000001 L 133.91899089999998 144.49456800000002 C 133.73439009999998 146.30587780000002 133.63999919999998 148.1588441 133.63999919999998 150.00000010000002 C 133.63999919999998 158.96429450000002 135.88853439999997 167.84251410000002 140.14131149999997 175.67422500000004 L 143.88887009999996 173.63945020000003 C 139.97337329999996 166.43025220000004 137.90388469999996 158.25572220000004 137.90388469999996 150.00000010000002 C 137.90388469999996 148.83340460000002 137.94413739999996 147.66192640000003 138.02603129999997 146.50158700000003 L 141.73854049999997 146.50158700000003 C 141.65092449999997 147.65777600000004 141.59176619999997 148.82177740000003 141.59176619999997 150.00000010000002 C 141.59176619999997 172.66732800000003 158.10945109999997 191.53817760000004 179.73770129999997 195.23915110000002 L 179.73770129999997 203.3429719 L 181.99595629999996 203.58172620000002 C 183.80866989999996 203.76632700000002 185.66162099999997 203.86001600000003 187.50070179999997 203.86001600000003 C 196.46568289999996 203.86001600000003 205.34323109999997 201.61146560000003 213.17422469999997 197.35800180000004 L 211.13944989999996 193.61181650000003 C 203.91056809999995 197.53849800000003 195.65631089999997 199.59243780000003 187.41143779999996 199.59243780000003 C 186.27346779999996 199.59243780000003 185.13644389999996 199.55336000000003 184.00158669999996 199.47465520000003 L 184.00158669999996 195.76214600000003 C 185.15795879999996 195.84985350000002 186.32221959999995 195.90892030000003 187.50070169999995 195.90892030000003 C 210.16828899999996 195.90892030000003 229.03930639999996 179.39089970000003 232.73994429999993 157.76228330000004 L 240.84367349999994 157.76228330000004 L 241.08241249999995 155.50404360000005 C 241.26701329999995 153.68788150000003 241.36001559999994 151.83628850000005 241.36001559999994 150.00000000000006 C 241.36001559999994 141.03292850000005 239.11148039999995 132.15469360000006 234.85868809999994 124.32577510000006 L 231.11114479999995 126.36054990000005 C 235.02664159999995 133.56767270000006 237.09613019999995 141.74150080000004 237.09613019999995 150.00000000000006 C 237.09613019999995 151.16590880000007 237.05587749999995 152.33805850000005 236.97537209999996 153.49839780000005 L 233.26286289999996 153.49839780000005 C 233.35047889999996 152.34222410000004 233.40963719999996 151.17822260000005 233.40963719999996 150.00000000000006 C 233.40963719999996 127.33214570000005 216.89134189999996 108.46094510000006 195.26229829999997 104.76057430000006 L 195.26229829999997 96.65702050000006 L 193.00405859999998 96.41827390000006 C 191.1913452 96.2336731 189.3397827 96.1399918 187.5007019 96.1399918 L 187.5007019 96.1399918 z M 190.9984131 121.225029 L 189.6326447 119.85924530000001 L 189.6326447 108.40907290000001 C 190.0909424 108.4322357 190.54402169999997 108.47482300000001 190.9984131 108.51283270000002 L 190.9984131 121.225029 L 190.9984131 121.225029 z M 146.5922241 142.2377014 C 150.1120758 123.65077209999998 166.01341250000002 109.3897705 185.3687591 108.40907289999998 L 185.3687591 121.62476349999999 L 190.998413 127.25440979999999 L 190.998413 133.2331696 L 181.7933044 133.2331696 L 181.7933044 137.49705509999998 L 195.2622985 137.49705509999998 L 195.2622985 131.51829529999998 L 209.77227770000002 146.02828979999998 L 222.05593860000002 133.65649409999997 L 221.3286284 132.27267449999997 C 216.70248400000003 123.46383659999996 208.97003160000003 116.88895409999996 199.5567168 113.75906369999997 L 196.7516021 112.82632439999998 L 196.7516021 126.97821039999998 L 195.2622985 125.48890679999998 L 195.2622985 109.09134669999997 C 213.84913630000003 112.61092369999997 228.1109313 128.51202389999997 229.09162890000002 147.86805719999998 L 215.875244 147.86805719999998 L 210.24488820000002 153.4983978 L 204.2675322 153.4983978 L 204.2675322 144.29330439999998 L 200.00364670000002 144.29330439999998 L 200.00364670000002 157.76228329999998 L 205.98100270000003 157.76228329999998 L 191.47172540000003 172.2715759 L 203.84420770000003 184.5545349 L 205.22802730000004 183.8279114 C 214.03616330000003 179.20176700000002 220.61103820000002 171.4700012 223.74234000000004 162.056015 L 224.67506400000005 159.2516022 L 210.52178950000004 159.2516022 L 212.01092520000003 157.7622834 L 228.40916430000004 157.7622834 C 224.88932790000004 176.3492127 208.98799120000004 190.6102296 189.63264450000003 191.5909272 L 189.63264450000003 178.3752442 L 184.0015868 172.7442017 L 184.0015868 166.7668305 L 193.2066954 166.7668305 L 193.2066954 162.502945 L 179.7377013 162.502945 L 179.7377013 168.480301 L 165.2291106 153.97171029999998 L 152.9468535 166.343506 L 153.67275990000002 167.7273256 C 158.29753100000002 176.5361635 166.02998340000002 183.1110384 175.443283 186.2409212 L 178.2483977 187.1736605 L 178.2483977 173.020401 L 179.7377013 174.5096893 L 179.7377013 190.9083862 C 161.1515654 187.3883667 146.8904723 171.4874572 145.9097747 152.1319427 L 159.124771 152.1319427 L 164.7551268 146.5015869 L 170.733856 146.5015869 L 170.733856 155.7066955 L 174.9977415 155.7066955 L 174.9977415 142.2377014 L 169.01901229999999 142.2377014 L 183.5282896 127.72842409999998 L 171.15719579999998 115.44545749999999 L 169.77337619999997 116.17207339999999 C 160.96383639999996 120.7975159 154.38896149999997 128.52998359999998 151.25906349999997 137.9439698 L 150.32772809999997 140.74838259999999 L 164.47822549999998 140.74838259999999 L 162.9890898 142.2377014 L 146.5922241 142.2377014 L 146.5922241 142.2377014 z M 209.7611847 139.9877777 L 201.0154877 131.2420959 L 201.0154877 118.8758621 C 207.6361695 121.74204250000001 213.1367493 126.61872100000001 216.8010254 132.89656060000002 L 209.7611847 139.9877777 L 209.7611847 139.9877777 z M 156.3821106 136.4844971 C 159.2469025 129.931839 164.2061768 124.3320313 170.3979645 120.70104979999999 L 177.487793 127.7395248 L 168.742096 136.484497 L 156.3821106 136.484497 L 156.3821106 136.4844971 z M 145.9097748 147.8680573 C 145.9329376 147.4095002 145.9755249 146.9561463 146.0135346 146.501587 L 158.7255402 146.501587 L 157.35925300000002 147.8680573 L 145.9097748 147.8680573 L 145.9097748 147.8680573 z M 216.2744598 153.4983978 L 217.64076229999998 152.1319427 L 229.09162899999998 152.1319427 C 229.0684662 152.5904998 229.02586359999998 153.0438385 228.98786919999998 153.4983978 L 216.2744598 153.4983978 L 216.2744598 153.4983978 z M 173.9845123 181.1179047 C 167.4318542 178.25378419999998 161.8327179 173.2938385 158.20175170000002 167.1020356 L 165.24021910000002 160.01222239999998 L 173.9845123 168.75651559999997 L 173.9845123 181.1179047 L 173.9845123 181.1179047 z M 204.6020508 179.2989349 L 197.5122223 172.2604828 L 206.2579041 163.5154877 L 218.6179047 163.5154877 C 215.7530975 170.0681458 210.7938385 175.6679688 204.6020508 179.2989349 L 204.6020508 179.2989349 z M 185.3687592 191.5909271 C 184.9099427 191.56767269999997 184.4564209 191.52517699999999 184.001587 191.48707579999999 L 184.001587 178.77357479999998 L 185.3687592 180.14074699999998 L 185.3687592 191.5909271 L 185.3687592 191.5909271 z" stroke-linecap="round" />
</g>
</g>
</g>
<g transform="matrix(1 0 0 1 325 365.94224235383916)" id="text-logo"  >
<g style=""  paint-order="stroke"   >
		<g transform="matrix(1 0 0 1 0 0)" id="text-logo-path-0"  >
<path style="stroke: none; stroke-width: 0; stroke-dasharray: none; stroke-linecap: butt; stroke-dashoffset: 0; stroke-linejoin: miter; stroke-miterlimit: 4; fill: rgb(240,240,240); fill-rule: nonzero; opacity: 0;"  paint-order="stroke"  transform=" translate(0, 0)" d="" stroke-linecap="round" />
</g>
</g>
</g>
<g transform="matrix(1 0 0 1 325 398.679027134089)" id="tagline-a5115c09-ccec-4d04-a9c6-fa595707ccf1-logo"  >
<g style=""  paint-order="stroke"   >
		<g transform="matrix(1 0 0 1 0 0)" id="tagline-a5115c09-ccec-4d04-a9c6-fa595707ccf1-logo-path-0"  >
<path style="stroke: none; stroke-width: 0; stroke-dasharray: none; stroke-linecap: butt; stroke-dashoffset: 0; stroke-linejoin: miter; stroke-miterlimit: 4; fill: rgb(43,58,255); fill-rule: nonzero; opacity: 1;"  paint-order="stroke"  transform=" translate(0, 0)" d="" stroke-linecap="round" />
</g>
</g>
</g>
<g transform="matrix(1.9211538461538462 0 0 1.9211538461538462 617.6707633025192 521.7377588811686)" id="tagline-52876182-a2d4-48d8-bc1f-08c47dd45e22-logo"  >
<g style=""  paint-order="stroke"   >
		<g transform="matrix(1 0 0 1 0 0)" id="tagline-52876182-a2d4-48d8-bc1f-08c47dd45e22-logo-path-0"  >
<filter id="SVGID_456037" y="-67.60686442409785%" height="235.2137288481957%" x="-80.25052161658752%" width="260.50104323317504%" >
	<feGaussianBlur in="SourceAlpha" stdDeviation="11.694626245779638"></feGaussianBlur>
	<feOffset dx="0" dy="0" result="oBlur" ></feOffset>
	<feFlood flood-color="rgb(0,7,46)" flood-opacity="1"/>
	<feComposite in2="oBlur" operator="in" />
	<feMerge>
		<feMergeNode></feMergeNode>
		<feMergeNode in="SourceGraphic"></feMergeNode>
	</feMerge>
</filter>
<path style="stroke: rgb(255,255,255); stroke-width: 10.023965353525403; stroke-dasharray: none; stroke-linecap: butt; stroke-dashoffset: 0; stroke-linejoin: miter; stroke-miterlimit: 4; fill: rgb(232,232,232); fill-rule: nonzero; opacity: 1;filter: url(#SVGID_456037);"  paint-order="stroke"  transform=" translate(-25.71, 24.565)" d="M 33.2 0 L 6.3 0 L 6.3 -49.13 L 31.79 -49.13 Q 43.72 -49.13 43.72 -37.17 L 43.72 -37.17 L 43.72 -36.28 Q 43.72 -32.14 42.4 -29.52 Q 41.08 -26.9 38.3 -25.63 L 38.3 -25.63 Q 39.85 -25.15 41.11 -24.26 Q 42.38 -23.37 43.27 -21.98 Q 44.16 -20.59 44.64 -18.71 Q 45.12 -16.82 45.12 -14.39 L 45.12 -14.39 L 45.12 -11.92 Q 45.12 0 33.2 0 L 33.2 0 Z M 13.19 -21.41 L 13.19 -6.89 L 32.99 -6.89 Q 35.77 -6.89 37 -8.19 Q 38.24 -9.49 38.24 -12.27 L 38.24 -12.27 L 38.24 -16.07 Q 38.24 -18.88 37 -20.15 Q 35.77 -21.41 32.99 -21.41 L 32.99 -21.41 L 13.19 -21.41 Z M 13.19 -42.24 L 13.19 -28.27 L 32.07 -28.27 Q 34.6 -28.37 35.72 -29.65 Q 36.83 -30.94 36.83 -33.61 L 36.83 -33.61 L 36.83 -36.83 Q 36.83 -39.64 35.6 -40.94 Q 34.36 -42.24 31.59 -42.24 L 31.59 -42.24 L 13.19 -42.24 Z" stroke-linecap="round" />
</g>
</g>
</g>
</svg>